<svg xmlns="http://www.w3.org/2000/svg" viewBox="0 0 468.23 468.23"><path d="M335.35 363.003h-6.008V105.227h6.008c5.522 0 10-4.477 10-10s-4.478-10-10-10h-6.532C323.803 37.401 283.246 0 234.115 0s-89.688 37.401-94.702 85.227h-6.532c-5.522 0-10 4.477-10 10s4.478 10 10 10h6.008v257.776h-6.008c-5.522 0-10 4.477-10 10s4.478 10 10 10h6.532c5.014 47.826 45.571 85.227 94.702 85.227s89.688-37.401 94.702-85.227h6.532c5.522 0 10-4.477 10-10 .001-5.523-4.477-10-9.999-10zm-94.898 0l-77.675-77.676a9.937 9.937 0 0 0-3.889-2.399V176.853L307.536 325.5a9.948 9.948 0 0 0 1.806 1.421v36.082h-68.89zm68.89-206.692l-51.084-51.084h51.084v51.084zM234.115 20c38.088 0 69.634 28.46 74.542 65.227H159.573C164.481 48.46 196.027 20 234.115 20zm-4.142 85.227l79.369 79.369v114.425L158.889 148.568v-43.341h71.084zm-71.084 204.497l53.279 53.279h-53.279v-53.279zm75.226 138.506c-38.088 0-69.634-28.46-74.542-65.227h149.084c-4.908 36.768-36.453 65.227-74.542 65.227z"/></svg>