<svg xmlns="http://www.w3.org/2000/svg" viewBox="0 0 297 297"><path d="M258.276 4.254A9.884 9.884 0 0 0 250.152 0H46.848a9.884 9.884 0 0 0-9.254 13.355l54.56 145.491-13.57 94.988a37.8 37.8 0 0 0 8.868 30.127 37.801 37.801 0 0 0 28.571 13.04h64.956a37.803 37.803 0 0 0 28.571-13.04 37.797 37.797 0 0 0 8.868-30.127l-13.569-94.988 54.559-145.492a9.889 9.889 0 0 0-1.132-9.1zm-61.08 15.513l-17.864 35.727-8.932-35.727h26.796zm-11.062 147.857l1.68 11.762h-78.628l1.68-11.762h75.268zm8.481 103.384a18.043 18.043 0 0 1-13.637 6.224h-64.956a18.043 18.043 0 0 1-13.637-6.224 18.038 18.038 0 0 1-4.233-14.38l8.211-57.475h84.276l8.21 57.475a18.042 18.042 0 0 1-4.234 14.38zm-6.758-123.151h-78.712L61.109 19.767H77.13l27.193 67.727a9.886 9.886 0 0 0 9.175 6.204c1.226 0 2.473-.23 3.679-.714 5.066-2.035 7.524-7.789 5.49-12.854L98.432 19.767h51.593l16.611 66.443a9.884 9.884 0 0 0 18.428 2.022l34.232-68.465h16.595l-48.034 128.09z"/></svg>