<svg xmlns="http://www.w3.org/2000/svg" viewBox="0 0 496.158 496.158"><path d="M248.082.003C111.07.003 0 111.063 0 248.085c0 137.001 111.07 248.07 248.082 248.07 137.006 0 248.076-111.069 248.076-248.07C496.158 111.062 385.088.003 248.082.003z" fill="#edc92f"/><path d="M409.676 333.107l-44.389 42.656-3.396-3.397 42.654-44.39-4.809-4.811-44.391 42.656-3.396-3.396 42.656-44.391-5.025-5.024-44.391 42.655-3.396-3.397 42.656-44.39-4.811-4.811-44.389 42.656-3.398-3.396 42.654-44.389-5.023-5.027-44.389 42.657-3.398-3.396 42.656-44.391-4.811-4.811-44.389 42.657-3.398-3.398 42.656-44.391-5.023-5.023-44.391 42.656-3.398-3.398 42.656-44.389-4.809-4.811-44.391 42.656-3.396-3.396 42.656-44.391-5.025-5.025-44.391 42.656-3.396-3.396 42.654-44.391-4.809-4.811-44.389 42.656-3.398-3.396 42.656-44.391-5.025-5.023-44.389 42.658-3.396-3.398 42.656-44.39-4.811-4.811-44.389 42.657-3.398-3.398 42.656-44.391-5.025-5.023-44.389 42.655-3.398-3.397 42.656-44.391-4.809-4.809-44.391 42.656-3.398-3.396 42.656-44.391-5.023-5.025-44.391 42.656-3.396-3.396 42.656-44.391-4.811-4.811-44.391 42.657-3.396-3.397 42.656-44.391-5.025-5.025-44.391 42.658-3.396-3.398 42.654-44.391-4.809-4.81-44.389 42.656-3.398-3.397 42.656-44.39-5.025-5.026-44.391 42.657-3.396-3.396 42.656-44.392-4.811-4.809-44.389 42.656-3.398-3.398 42.656-44.39-5.023-5.024-44.391 42.656-3.396-3.397 42.656-44.39-4.811-4.811-44.391 42.657-3.396-3.397 42.656-44.391-5.027-5.025-44.389 42.656-3.396-3.396 42.656-44.391-4.811-4.811-44.387 42.659-3.398-3.396 42.656-44.39-5.025-5.025-44.391 42.657-3.396-3.397 42.656-44.392-5.17-5.17-69.596 69.594c-8.594 8.594-8.594 22.527 0 31.119l225.189 225.188c8.592 8.593 22.525 8.593 31.117 0l69.596-69.595-4.841-4.84z" fill="#5b4f3f"/><path d="M408.416 160.978l-171.672 95.883 19.693 24.27s122.936-86.334 139.945-97.971c17.009-11.637 12.034-22.182 12.034-22.182z" fill="#d8d8d8"/><path d="M408.908 162.7c-.201-1.103-170.561 96.138-170.561 96.138l18.09 22.293s122.936-86.334 139.945-97.971c12.889-8.818 13.153-17.01 12.526-20.46z" fill="#c6c6c6"/><path d="M236.744 256.861s-18.201 8.654-32.822 15.516c-11.313 5.312-33.719 10.445-41.178 8.955-7.461-1.494-14.379-8.97-17.715-12.195a42.804 42.804 0 0 0-4.367-5.113c-17.137-17.139-45.459-16.604-63.258 1.193-17.797 17.797-18.332 46.12-1.193 63.258 17.139 17.139 45.461 16.604 63.258-1.193 0 0 27.752-22.975 38.791-30.436 11.041-7.46 23.498-3.356 29.84.001 10.143 5.37 20.887 4.177 28.049.597 7.16-3.581 20.289-16.313 20.289-16.313l-19.694-24.27zm-109.211 58.485c-10.951 10.953-28.381 11.281-38.928.734-10.545-10.545-10.217-27.975.734-38.928 10.953-10.951 28.383-11.279 38.928-.734 10.547 10.547 10.219 27.976-.734 38.928z" fill="#306a87"/><path d="M321.851 108.631c-11.635 17.01-97.969 139.945-97.969 139.945l24.268 19.691 95.885-171.67c0 .001-10.547-4.974-22.184 12.034z" fill="#c6c6c6"/><path d="M342.205 96.086c-3.512-.603-11.625-.212-20.354 12.545-11.635 17.01-97.969 139.945-97.969 139.945l21.729 17.632s97.764-169.921 96.594-170.122z" fill="#b7b7b7"/><path d="M240.988 364.35a42.52 42.52 0 0 0-5.111-4.365c-3.227-3.337-10.703-10.256-12.195-17.715-1.492-7.461 3.643-29.865 8.953-41.18 6.861-14.62 15.516-32.822 15.516-32.822l-24.268-19.691s-12.732 13.128-16.313 20.289c-3.58 7.162-4.775 17.904.596 28.049 3.357 6.341 7.459 18.797 0 29.84-7.459 11.039-30.436 38.789-30.436 38.789-17.797 17.797-18.332 46.119-1.193 63.258s45.461 16.604 63.258-1.193c17.799-17.8 18.332-46.121 1.193-63.259zm-13.129 51.322c-10.951 10.953-28.381 11.279-38.928.734-10.545-10.547-10.217-27.975.734-38.928 10.953-10.952 28.381-11.279 38.928-.734 10.546 10.545 10.219 27.976-.734 38.928z" fill="#306a87"/><path d="M231.738 266.238a8.29 8.29 0 0 0-8.295 8.295c-.002 4.582 3.713 8.297 8.295 8.297s8.297-3.715 8.297-8.297-3.715-8.297-8.297-8.295z" fill="#c1c1c1"/><path d="M223.443 274.533a8.294 8.294 0 0 0 8.295 8.297v-16.592a8.29 8.29 0 0 0-8.295 8.295z" fill="#b2b1b1"/></svg>