<svg version="1" xmlns="http://www.w3.org/2000/svg" width="649.333" height="400" viewBox="0 0 487.000000 300.000000"><path d="M280.2 131.9C263.6 169.3 250 200.4 250 201c0 .7 4.5 1 14.1.8 11.4-.2 14.4-.6 15-1.8.5-.8 2.7-5.4 4.9-10.2l3.9-8.8h45.8l4.6 10.2 4.6 10.3 14.6.3c8 .1 14.5-.1 14.5-.4 0-1.1-60.1-135.8-60.9-136.7-.4-.4-14.3 29.8-30.9 67.2zm36.6 10.9c2.9 7 5.2 13 5.2 13.4 0 .5-5.2.8-11.6.8-6.4 0-11.4-.4-11.2-.9 3-7.7 11.2-26.1 11.7-26.1.3 0 3 5.8 5.9 12.8zM57 66.5c-24.3 5.5-46 26.9-51.5 51-1.9 8.1-2.1 23.2-.5 31.2 4.9 24 25.9 45.8 50 52 8.8 2.2 25.4 2.2 34-.1 10.7-2.9 30.8-14.6 31-18.1 0-.5-4.1-5.1-9.2-10.2l-9.2-9.2-3.7 3c-10 7.9-25.2 11-37.1 7.5-11.6-3.3-22.5-13.3-27.1-24.8-1.6-4.1-2.1-7.5-2.1-14.8 0-12.6 2.4-18.8 10.6-27.6 8.3-8.8 16.1-12.6 27.2-13.2 10.5-.6 17.4 1.4 26 7.3l6.4 4.4 9.1-9.9 9.1-9.8-4.7-4.2c-5.4-4.7-20.2-12.2-27.7-13.9-8.1-2-23.3-2.3-30.6-.6zm80 67.5v68h27v-55h41v55h27V66h-27v54h-41V66h-27v68zm252 0v68h27v-40.8l15.8-.4c13.2-.4 16.6-.8 21.4-2.7 12.1-4.7 23.4-16 27.9-27.9 4.6-12.3 3.4-28.4-3.1-39.6-3.7-6.5-12.8-15.6-18.9-19-9.2-4.9-14.2-5.6-43.3-5.6H389v68zm52.8-39.8c9.3 2.3 16.5 13.3 14.7 22.5-1 5.2-2.8 8.5-6.9 12.1-4.8 4.2-9.1 5.2-22.3 5.2H416V93h10.6c5.8 0 12.6.5 15.2 1.2z"/></svg>