<svg xmlns="http://www.w3.org/2000/svg" viewBox="0 0 297 297" width="512" height="512"><g fill="#FFF"><path d="M24.435 255.915c0 8.394.691 17.031 5.593 24.6l.911 1.384c4.914 7.592 12.616 12.733 21.689 14.477 2.173.418 4.379.624 6.585.624 7.489 0 14.987-2.369 21.293-6.837 71.955-50.949 134.272-113.266 185.219-185.218 5.786-8.165 8.052-18.327 6.216-27.88-1.745-9.072-6.886-16.776-14.42-21.652l-1.5-.986c-15.853-10.265-36.963-6.044-48.063 9.613-36.959 52.197-80.506 98.807-129.831 139.047v-65.603l14.233-14.232a9.757 9.757 0 0 0 2.857-6.899v-85.45C95.218 13.863 81.355 0 64.315 0h-8.977c-17.04 0-30.903 13.863-30.903 30.903v225.012zM55.338 19.513h8.977c6.28 0 11.39 5.11 11.39 11.39v81.408l-14.233 14.232a9.757 9.757 0 0 0-2.857 6.899v85.008a712.633 712.633 0 0 1-14.666 10.834V30.903c0-6.28 5.109-11.39 11.389-11.39zm194.466 74.15l-.002.003c-49.67 70.148-110.423 130.901-180.574 180.573-3.85 2.728-8.556 3.809-12.916 2.975-3.802-.731-6.995-2.833-9.03-5.976l-.912-1.387c-4.488-6.927-2.462-16.588 4.509-21.531 67.21-47.587 125.418-105.795 173.002-173 3.173-4.474 8.285-6.911 13.355-6.911 2.834 0 5.656.761 8.117 2.354l1.507.991c3.086 1.998 5.188 5.192 5.919 8.993.837 4.359-.247 9.066-2.975 12.916z"/><path d="M67.332 246.511a9.845 9.845 0 0 0-6.898 2.858 9.832 9.832 0 0 0-2.858 6.898 9.847 9.847 0 0 0 2.858 6.897 9.83 9.83 0 0 0 6.898 2.859 9.814 9.814 0 0 0 6.898-2.859 9.783 9.783 0 0 0 2.858-6.897 9.773 9.773 0 0 0-2.858-6.898 9.83 9.83 0 0 0-6.898-2.858zm166.76-167.795a9.834 9.834 0 0 0-6.898 2.858c-1.814 1.815-2.858 4.332-2.858 6.898s1.044 5.083 2.858 6.898c1.815 1.814 4.332 2.858 6.898 2.858s5.083-1.044 6.898-2.858c1.814-1.815 2.858-4.332 2.858-6.898s-1.044-5.083-2.858-6.898a9.834 9.834 0 0 0-6.898-2.858z"/></g></svg>