<?xml version="1.0" encoding="iso-8859-1"?>
<!-- Generator: Adobe Illustrator 17.1.0, SVG Export Plug-In . SVG Version: 6.00 Build 0)  -->
<!DOCTYPE svg PUBLIC "-//W3C//DTD SVG 1.1//EN" "http://www.w3.org/Graphics/SVG/1.1/DTD/svg11.dtd">
<svg version="1.1" id="Capa_1" xmlns="http://www.w3.org/2000/svg" xmlns:xlink="http://www.w3.org/1999/xlink" x="0px" y="0px"
	 viewBox="0 0 468.23 468.23" style="enable-background:new 0 0 468.23 468.23;" xml:space="preserve">
<path d="M335.35,363.003h-6.008V105.227h6.008c5.522,0,10-4.477,10-10c0-5.523-4.478-10-10-10h-6.532
	C323.803,37.401,283.246,0,234.115,0s-89.688,37.401-94.702,85.227h-6.532c-5.522,0-10,4.477-10,10c0,5.523,4.478,10,10,10h6.008
	v47.478c0,0.003,0,0.007,0,0.01v210.288h-6.008c-5.522,0-10,4.477-10,10c0,5.523,4.478,10,10,10h6.532
	c5.014,47.826,45.571,85.227,94.702,85.227s89.688-37.401,94.702-85.227h6.532c5.522,0,10-4.477,10-10
	C345.35,367.48,340.872,363.003,335.35,363.003z M240.452,363.003l-77.675-77.676c-1.131-1.131-2.468-1.923-3.889-2.399V176.853
	L307.536,325.5c0.556,0.556,1.165,1.024,1.806,1.421v36.082H240.452z M309.342,156.311l-51.084-51.084h51.084V156.311z M234.115,20
	c38.088,0,69.634,28.46,74.542,65.227H159.573C164.481,48.46,196.027,20,234.115,20z M229.973,105.227l79.369,79.369v114.425
	L158.889,148.568v-43.341H229.973z M158.889,309.724l53.279,53.279h-53.279V309.724z M234.115,448.23
	c-38.088,0-69.634-28.46-74.542-65.227h149.084C303.749,419.771,272.204,448.23,234.115,448.23z"/>
<g>
</g>
<g>
</g>
<g>
</g>
<g>
</g>
<g>
</g>
<g>
</g>
<g>
</g>
<g>
</g>
<g>
</g>
<g>
</g>
<g>
</g>
<g>
</g>
<g>
</g>
<g>
</g>
<g>
</g>
</svg>
