<?xml version='1.0' encoding='iso-8859-1'?>
<!DOCTYPE svg PUBLIC '-//W3C//DTD SVG 1.1//EN' 'http://www.w3.org/Graphics/SVG/1.1/DTD/svg11.dtd'>
<svg version="1.1" xmlns="http://www.w3.org/2000/svg" viewBox="0 0 297 297" xmlns:xlink="http://www.w3.org/1999/xlink" enable-background="new 0 0 297 297">
  <path d="m258.276,4.254c-1.846-2.664-4.882-4.254-8.124-4.254h-203.304c-3.242,0-6.278,1.59-8.124,4.254-1.846,2.665-2.268,6.065-1.13,9.101l54.56,145.491-13.57,94.988c-1.551,10.859 1.681,21.84 8.868,30.127 7.188,8.287 17.601,13.04 28.571,13.04h64.956c10.969,0 21.383-4.753 28.571-13.04 7.188-8.287 10.419-19.268 8.868-30.127l-13.569-94.988 54.559-145.492c1.136-3.035 0.715-6.436-1.132-9.1zm-61.08,15.513l-17.864,35.727-8.932-35.727h26.796zm-11.062,147.857l1.68,11.762h-78.628l1.68-11.762h75.268zm8.481,103.384c-3.43,3.955-8.401,6.224-13.637,6.224h-64.956c-5.236,0-10.207-2.269-13.637-6.224-3.431-3.955-4.974-9.197-4.233-14.38l8.211-57.475h84.276l8.21,57.475c0.74,5.183-0.803,10.425-4.234,14.38zm-6.758-123.151h-78.712l-48.036-128.09h16.021l27.193,67.727c1.549,3.859 5.257,6.204 9.175,6.204 1.226,0 2.473-0.23 3.679-0.714 5.066-2.035 7.524-7.789 5.49-12.854l-24.235-60.363h51.593l16.611,66.443c1.003,4.012 4.398,6.975 8.51,7.427 0.362,0.04 0.723,0.059 1.082,0.059 3.71,0 7.149-2.091 8.836-5.464l34.232-68.465h16.595l-48.034,128.09z"/>
</svg>
