<?xml version="1.0" encoding="iso-8859-1"?>
<!-- Generator: Adobe Illustrator 19.0.0, SVG Export Plug-In . SVG Version: 6.00 Build 0)  -->
<svg version="1.1" id="Layer_1" xmlns="http://www.w3.org/2000/svg" xmlns:xlink="http://www.w3.org/1999/xlink" x="0px" y="0px"
	 viewBox="0 0 496.158 496.158" style="enable-background:new 0 0 496.158 496.158;" xml:space="preserve">
<path style="fill:#EDC92F;" d="M248.082,0.003C111.07,0.003,0,111.063,0,248.085c0,137.001,111.07,248.07,248.082,248.07
	c137.006,0,248.076-111.069,248.076-248.07C496.158,111.062,385.088,0.003,248.082,0.003z"/>
<path style="fill:#5B4F3F;" d="M409.676,333.107l-44.389,42.656l-3.396-3.397l42.654-44.39l-4.809-4.811l-44.391,42.656
	l-3.396-3.396l42.656-44.391l-5.025-5.024l-44.391,42.655l-3.396-3.397l42.656-44.39l-4.811-4.811l-44.389,42.656l-3.398-3.396
	l42.654-44.389l-5.023-5.027l-44.389,42.657l-3.398-3.396l42.656-44.391l-4.811-4.811l-44.389,42.657l-3.398-3.398l42.656-44.391
	l-5.023-5.023l-44.391,42.656l-3.398-3.398l42.656-44.389l-4.809-4.811l-44.391,42.656l-3.396-3.396l42.656-44.391l-5.025-5.025
	l-44.391,42.656l-3.396-3.396l42.654-44.391l-4.809-4.811l-44.389,42.656l-3.398-3.396l42.656-44.391l-5.025-5.023l-44.389,42.658
	l-3.396-3.398l42.656-44.39l-4.811-4.811l-44.389,42.657l-3.398-3.398l42.656-44.391l-5.025-5.023l-44.389,42.655l-3.398-3.397
	l42.656-44.391l-4.809-4.809l-44.391,42.656l-3.398-3.396l42.656-44.391l-5.023-5.025l-44.391,42.656l-3.396-3.396l42.656-44.391
	l-4.811-4.811l-44.391,42.657l-3.396-3.397l42.656-44.391l-5.025-5.025l-44.391,42.658l-3.396-3.398l42.654-44.391l-4.809-4.81
	l-44.389,42.656l-3.398-3.397l42.656-44.39l-5.025-5.026l-44.391,42.657l-3.396-3.396l42.656-44.392l-4.811-4.809l-44.389,42.656
	l-3.398-3.398l42.656-44.39l-5.023-5.024l-44.391,42.656l-3.396-3.397l42.656-44.39l-4.811-4.811l-44.391,42.657l-3.396-3.397
	l42.656-44.391l-5.027-5.025l-44.389,42.656l-3.396-3.396l42.656-44.391l-4.811-4.811l-44.387,42.659l-3.398-3.396l42.656-44.39
	l-5.025-5.025L124.121,134.6l-3.396-3.397l42.656-44.392l-5.17-5.17l-69.596,69.594c-8.594,8.594-8.594,22.527,0,31.119
	l225.189,225.188c8.592,8.593,22.525,8.593,31.117,0l69.596-69.595L409.676,333.107z"/>
<path style="fill:#D8D8D8;" d="M408.416,160.978l-171.672,95.883l19.693,24.27c0,0,122.936-86.334,139.945-97.971
	C413.391,171.523,408.416,160.978,408.416,160.978z"/>
<path style="fill:#C6C6C6;" d="M408.908,162.7c-0.201-1.103-170.561,96.138-170.561,96.138l18.09,22.293
	c0,0,122.936-86.334,139.945-97.971C409.271,174.342,409.535,166.15,408.908,162.7z"/>
<path style="fill:#306A87;" d="M236.744,256.861c0,0-18.201,8.654-32.822,15.516c-11.313,5.312-33.719,10.445-41.178,8.955
	c-7.461-1.494-14.379-8.97-17.715-12.195c-1.301-1.791-2.756-3.502-4.367-5.113c-17.137-17.139-45.459-16.604-63.258,1.193
	c-17.797,17.797-18.332,46.12-1.193,63.258c17.139,17.139,45.461,16.604,63.258-1.193c0,0,27.752-22.975,38.791-30.436
	c11.041-7.46,23.498-3.356,29.84,0.001c10.143,5.37,20.887,4.177,28.049,0.597c7.16-3.581,20.289-16.313,20.289-16.313
	L236.744,256.861z M127.533,315.346c-10.951,10.953-28.381,11.281-38.928,0.734c-10.545-10.545-10.217-27.975,0.734-38.928
	c10.953-10.951,28.383-11.279,38.928-0.734C138.814,286.965,138.486,304.394,127.533,315.346z"/>
<path style="fill:#C6C6C6;" d="M321.851,108.631c-11.635,17.01-97.969,139.945-97.969,139.945l24.268,19.691l95.885-171.67
	C344.035,96.598,333.488,91.623,321.851,108.631z"/>
<path style="fill:#B7B7B7;" d="M342.205,96.086c-3.512-0.603-11.625-0.212-20.354,12.545
	c-11.635,17.01-97.969,139.945-97.969,139.945l21.729,17.632C245.611,266.208,343.375,96.287,342.205,96.086z"/>
<path style="fill:#306A87;" d="M240.988,364.35c-1.609-1.611-3.32-3.065-5.111-4.365c-3.227-3.337-10.703-10.256-12.195-17.715
	c-1.492-7.461,3.643-29.865,8.953-41.18c6.861-14.62,15.516-32.822,15.516-32.822l-24.268-19.691c0,0-12.732,13.128-16.313,20.289
	c-3.58,7.162-4.775,17.904,0.596,28.049c3.357,6.341,7.459,18.797,0,29.84c-7.459,11.039-30.436,38.789-30.436,38.789
	c-17.797,17.797-18.332,46.119-1.193,63.258s45.461,16.604,63.258-1.193C257.594,409.809,258.127,381.488,240.988,364.35z
	 M227.859,415.672c-10.951,10.953-28.381,11.279-38.928,0.734c-10.545-10.547-10.217-27.975,0.734-38.928
	c10.953-10.952,28.381-11.279,38.928-0.734C239.139,387.289,238.812,404.72,227.859,415.672z"/>
<path style="fill:#C1C1C1;" d="M231.738,266.238c-4.584-0.002-8.297,3.713-8.295,8.295c-0.002,4.582,3.713,8.297,8.295,8.297
	s8.297-3.715,8.297-8.297S236.32,266.236,231.738,266.238z"/>
<path style="fill:#B2B1B1;" d="M223.443,274.533c-0.002,4.582,3.713,8.297,8.295,8.297v-16.592
	C227.154,266.236,223.441,269.951,223.443,274.533z"/>
<g>
</g>
<g>
</g>
<g>
</g>
<g>
</g>
<g>
</g>
<g>
</g>
<g>
</g>
<g>
</g>
<g>
</g>
<g>
</g>
<g>
</g>
<g>
</g>
<g>
</g>
<g>
</g>
<g>
</g>
</svg>
