<?xml version="1.0" standalone="no"?>
<!DOCTYPE svg PUBLIC "-//W3C//DTD SVG 20010904//EN"
 "http://www.w3.org/TR/2001/REC-SVG-20010904/DTD/svg10.dtd">
<svg version="1.0" xmlns="http://www.w3.org/2000/svg"
 width="487.000000pt" height="300.000000pt" viewBox="0 0 487.000000 300.000000"
 preserveAspectRatio="xMidYMid meet">
<metadata>
Created by potrace 1.14, written by Peter Selinger 2001-2017
</metadata>
<g transform="translate(0.000000,300.000000) scale(0.100000,-0.100000)"
fill="#000000" stroke="none">
<path d="M2802 1681 c-166 -374 -302 -685 -302 -691 0 -7 45 -10 141 -8 114 2
144 6 150 18 5 8 27 54 49 102 l39 88 229 0 229 0 46 -102 46 -103 146 -3 c80
-1 145 1 145 4 0 11 -601 1358 -609 1367 -4 4 -143 -298 -309 -672z m366 -109
c29 -70 52 -130 52 -134 0 -5 -52 -8 -116 -8 -64 0 -114 4 -112 9 30 77 112
261 117 261 3 0 30 -58 59 -128z"/>
<path d="M570 2335 c-243 -55 -460 -269 -515 -510 -19 -81 -21 -232 -5 -312
49 -240 259 -458 500 -520 88 -22 254 -22 340 1 107 29 308 146 310 181 0 5
-41 51 -92 102 l-92 92 -37 -30 c-100 -79 -252 -110 -371 -75 -116 33 -225
133 -271 248 -16 41 -21 75 -21 148 0 126 24 188 106 276 83 88 161 126 272
132 105 6 174 -14 260 -73 l64 -44 91 99 91 98 -47 42 c-54 47 -202 122 -277
139 -81 20 -233 23 -306 6z"/>
<path d="M1370 1660 l0 -680 135 0 135 0 0 275 0 275 205 0 205 0 0 -275 0
-275 135 0 135 0 0 680 0 680 -135 0 -135 0 0 -270 0 -270 -205 0 -205 0 0
270 0 270 -135 0 -135 0 0 -680z"/>
<path d="M3890 1660 l0 -680 135 0 135 0 0 204 0 204 158 4 c132 4 166 8 214
27 121 47 234 160 279 279 46 123 34 284 -31 396 -37 65 -128 156 -189 190
-92 49 -142 56 -433 56 l-268 0 0 -680z m528 398 c93 -23 165 -133 147 -225
-10 -52 -28 -85 -69 -121 -48 -42 -91 -52 -223 -52 l-113 0 0 205 0 205 106 0
c58 0 126 -5 152 -12z"/>
</g>
</svg>
